<?xml version="1.0" encoding="UTF-8"?>
<!-- Generator: visioncortex VTracer 0.6.4 -->
<svg version="1.1" xmlns="http://www.w3.org/2000/svg" width="4000" height="729" viewBox="0 0 4000 729">
<title>Mason Extensions - Secondary Logo</title>
<path d="M0 0 C11.229 9.94 17.968 23.01 19.258 37.996 C19.783 52.575 14.622 62.504 6 74 C5.01 74 4.02 74 3 74 C4 70 4 70 6.438 65.875 C11.805 55.664 11.36 46.871 8.812 35.875 C4.507 24.295 -3.409 18.627 -14.188 13.562 C-24.304 10.276 -34.717 10.774 -44.285 15.41 C-55.21 21.808 -60.62 30.777 -64.098 42.793 C-64.813 45.844 -65.418 48.921 -66 52 C-65.34 52 -64.68 52 -64 52 C-63.563 53.576 -63.563 53.576 -63.117 55.184 C-59.997 65.868 -56.083 73.625 -48.625 81.938 C-45 86 -45 86 -45 88 C-43.02 88.99 -43.02 88.99 -41 90 C-38.633 91.914 -36.266 93.829 -33.903 95.749 C-28.781 99.721 -23.308 103.16 -17.875 106.688 C1.859 119.684 18.72 133.259 32 153 C32.907 154.341 33.815 155.681 34.75 157.062 C48.741 181.547 53.545 211.134 46.395 238.625 C37.441 266.713 21.966 292.41 -4.605 306.977 C-24.817 316.82 -49.177 321.192 -70.938 313.812 C-88.84 307.005 -103.237 295.43 -112 278 C-120.028 259.905 -120.1 243.18 -114.25 224.375 C-111.741 219.497 -108.873 215.873 -105 212 C-104.34 212 -103.68 212 -103 212 C-104 216 -104 216 -106 220.375 C-110.885 234.114 -109.149 246.872 -103 260 C-94.659 272.03 -84.468 280.106 -70 283 C-57.17 283.762 -47.044 282.727 -37 274 C-27.33 264.33 -22.756 252.601 -22.625 238.938 C-22.933 215.423 -34.947 200.662 -51 184.801 C-54.974 181.024 -59.044 177.534 -63.344 174.141 C-88.765 153.654 -107.623 126.801 -112 94 C-113.932 64.859 -108.266 36.313 -88.625 13.812 C-65.01 -11.4 -29.664 -21.696 0 0 Z M-63 6 C-63.33 6.66 -63.66 7.32 -64 8 C-60.23 6.492 -56.923 4.912 -53.375 3 C-43.179 -2.142 -33.104 -2.813 -22 -1 C-22 -0.34 -22 0.32 -22 1 C-26.62 1 -31.24 1 -36 1 C-36 1.33 -36 1.66 -36 2 C-34.333 2.073 -34.333 2.073 -32.633 2.148 C-19.672 2.8 -9.953 3.802 1 11 C-2.461 4.077 -9.121 0.952 -15.812 -2.438 C-32.571 -7.96 -49.263 -4.192 -63 6 Z M-82 17 C-97.576 33.199 -101.782 51.076 -101.371 72.996 C-101.16 78.169 -100.314 82.98 -99 88 C-98.67 88 -98.34 88 -98 88 C-98.247 85.525 -98.247 85.525 -98.5 83 C-100.318 60.662 -97.676 42.783 -84.988 23.996 C-82.856 20.915 -82.856 20.915 -81 17 C-81.33 17 -81.66 17 -82 17 Z M-85 37 C-92.908 53.175 -90.195 69.83 -84.938 86.336 C-80.266 98.435 -72.428 109.241 -64 119 C-63.34 119 -62.68 119 -62 119 C-62 119.66 -62 120.32 -62 121 C-59.382 123.413 -56.725 125.711 -54 128 C-53.032 128.831 -52.064 129.663 -51.066 130.52 C-45.399 135.369 -39.657 140.07 -33.75 144.625 C-28.034 149.076 -23 153.762 -18 159 C-17.154 159.846 -16.309 160.691 -15.438 161.562 C-14.633 162.367 -13.829 163.171 -13 164 C-11.721 165.217 -10.443 166.434 -9.125 167.688 C7.774 185.354 16.372 208.639 16.312 232.812 C16.329 234.102 16.345 235.392 16.361 236.721 C16.373 259.028 7.198 277.753 -8.25 293.5 C-11.357 296.546 -14.57 299.324 -18 302 C-5.962 298.991 2.546 285.982 9.25 276.312 C21.634 252.388 22.799 227.753 16 202 C10.725 185.589 0.648 171.806 -10.984 159.359 C-13 157 -13 157 -16 152 C-18.603 149.918 -21.285 147.934 -24 146 C-32.138 140.106 -39.648 133.844 -47 127 C-52.599 121.9 -52.599 121.9 -59 118 C-59 117.34 -59 116.68 -59 116 C-60.196 114.989 -61.392 113.979 -62.625 112.938 C-68.486 107.662 -72.08 102.301 -75 95 C-76.32 93.68 -77.64 92.36 -79 91 C-86.722 75.328 -88.405 60.027 -85 43 C-84.661 41.001 -84.325 39.001 -84 37 C-84.33 37 -84.66 37 -85 37 Z M-67 61 C-66 65 -66 65 -66 65 Z M-66 66 C-66 67.65 -66 69.3 -66 71 C-65.01 71.495 -65.01 71.495 -64 72 C-64.33 70.02 -64.66 68.04 -65 66 C-65.33 66 -65.66 66 -66 66 Z M-81 73 C-78.585 94.65 -62.221 109.978 -47 124 C-46.34 124 -45.68 124 -45 124 C-45 124.66 -45 125.32 -45 126 C-42.352 128.025 -39.679 130.017 -37 132 C-34.865 133.801 -32.741 135.614 -30.625 137.438 C-21.23 145.855 -21.23 145.855 -10 151 C-13.859 146.986 -17.974 143.488 -22.312 140 C-23.727 138.858 -25.141 137.716 -26.598 136.539 C-29.458 134.24 -32.32 131.943 -35.184 129.648 C-54.86 113.809 -72.274 97.909 -80 73 C-80.33 73 -80.66 73 -81 73 Z M-64 73 C-63 76 -63 76 -63 76 Z M-62 77 C-61 80 -61 80 -61 80 Z M-60 81 C-59 83 -59 83 -59 83 Z M-59 83 C-56.941 88.147 -54.483 91.719 -51 96 C-50.34 96 -49.68 96 -49 96 C-48.34 97.32 -47.68 98.64 -47 100 C-44.825 102.091 -44.825 102.091 -42.188 104.125 C-41.199 104.913 -40.21 105.7 -39.191 106.512 C-33.816 110.703 -28.419 114.865 -23 119 C-4.602 133.036 10.938 145.897 23 166 C23.33 165.34 23.66 164.68 24 164 C19.323 154.328 12.447 146.607 5 139 C4.062 138 3.123 136.999 2.156 135.969 C-6.133 127.323 -15.345 120.405 -25.316 113.805 C-38.028 105.351 -48.788 95.159 -58 83 C-58.33 83 -58.66 83 -59 83 Z M-53 84 C-51.5 88 -51.5 88 -49 89 C-50.5 85 -50.5 85 -53 84 Z M-98 89 C-97 92 -97 92 -97 92 Z M-96 95 C-95 97 -95 97 -95 97 Z M-39 98 C-38.67 98.66 -38.34 99.32 -38 100 C-37.34 99.67 -36.68 99.34 -36 99 C-36.99 98.67 -37.98 98.34 -39 98 Z M-34 102 C-33.67 102.66 -33.34 103.32 -33 104 C-32.34 103.67 -31.68 103.34 -31 103 C-31.99 102.67 -32.98 102.34 -34 102 Z M-31 104 C-30.67 104.66 -30.34 105.32 -30 106 C-29.34 105.67 -28.68 105.34 -28 105 C-28.99 104.67 -29.98 104.34 -31 104 Z M-28 106 C-23.969 110.269 -19.565 113.726 -14.875 117.25 C13.263 138.594 34.261 162.214 39.25 198.25 C41.146 216.13 38.061 232.92 32.086 249.758 C30.842 253.247 30.842 253.247 30 258 C42.699 241.068 43.515 215.467 41.539 195.293 C38.089 172.014 28.489 153.667 12 137 C10.538 135.43 10.538 135.43 9.047 133.828 C0.566 124.921 -8.902 117.972 -19 111 C-20.292 110.051 -21.583 109.103 -22.914 108.125 C-25.65 105.811 -25.65 105.811 -28 106 Z M-90 130 C-89 132 -89 132 -89 132 Z M-89 132 C-88.67 132.99 -88.34 133.98 -88 135 C-88 134.01 -88 133.02 -88 132 C-88.33 132 -88.66 132 -89 132 Z M-87 135 C-81.166 149.585 -66.63 161.805 -55 172 C-34.761 190.117 -18.517 208.38 -16.102 236.516 C-15.758 251.668 -21.45 266.508 -31.75 277.688 C-42.398 287.478 -55.188 288.529 -69 288 C-74.309 287.183 -78.439 285.824 -83.438 283.812 C-84.943 283.214 -86.449 282.616 -88 282 C-88.66 282.33 -89.32 282.66 -90 283 C-88.172 283.969 -86.337 284.924 -84.5 285.875 C-83.479 286.409 -82.458 286.942 -81.406 287.492 C-70.7 292.231 -57.1 293.159 -45.938 289.375 C-30.761 282.075 -21.203 270.626 -15.562 254.875 C-10.477 236.471 -15.388 219.479 -23.609 202.949 C-29.382 193.413 -37.007 185.677 -44.875 177.875 C-45.824 176.919 -46.773 175.962 -47.75 174.977 C-48.655 174.074 -49.56 173.172 -50.492 172.242 C-51.311 171.426 -52.129 170.61 -52.972 169.769 C-54.803 167.781 -54.803 167.781 -57 168 C-57 167.34 -57 166.68 -57 166 C-60.399 162.889 -63.83 159.891 -67.496 157.098 C-70.161 154.865 -72.206 152.526 -74.375 149.812 C-75.146 148.853 -75.917 147.894 -76.711 146.906 C-78.825 144.222 -80.917 141.521 -83 138.812 C-83.99 137.554 -84.98 136.296 -86 135 C-86.33 135 -86.66 135 -87 135 Z M-47 154 C-43.542 157.553 -39.954 160.79 -36.125 163.938 C-31.712 167.582 -27.332 171.259 -23 175 C-22.34 174.67 -21.68 174.34 -21 174 C-25.783 169.029 -30.716 164.739 -36.25 160.625 C-37.637 159.586 -39.024 158.547 -40.453 157.477 C-43.748 154.926 -43.748 154.926 -47 154 Z M-6 154 C-3.863 158.274 -1.782 160.271 1.75 163.438 C2.776 164.364 3.802 165.291 4.859 166.246 C7.866 168.882 10.915 171.456 14 174 C9.837 165.674 1.745 158.991 -6 154 Z M24 166 C25 168 25 168 25 168 Z M14 174 C14.33 174.99 14.66 175.98 15 177 C15 176.01 15 175.02 15 174 C14.67 174 14.34 174 14 174 Z M-21 175 C-17.751 179.386 -14.445 183.704 -11 187.938 C2.082 204.346 9.673 222.162 9.188 243.25 C9.167 244.957 9.167 244.957 9.146 246.699 C9.112 249.466 9.058 252.233 9 255 C14.255 247.118 12.966 236.097 12 227 C7.079 206.387 -3.344 189.233 -19 175 C-19.66 175 -20.32 175 -21 175 Z M16 177 C16.33 177.99 16.66 178.98 17 180 C17 179.01 17 178.02 17 177 C16.67 177 16.34 177 16 177 Z M18 180 C18.66 181.32 19.32 182.64 20 184 C19.67 182.68 19.34 181.36 19 180 C18.67 180 18.34 180 18 180 Z M20 184 C21 186 21 186 21 186 Z M-17 200 C-16 202 -16 202 -16 202 Z M-15 203 C-14.67 204.32 -14.34 205.64 -14 207 C-13.67 206.34 -13.34 205.68 -13 205 C-13.66 204.34 -14.32 203.68 -15 203 Z M-13 207 C-11.869 212.655 -10.045 217.869 -8.156 223.309 C-4.639 234.537 -5.564 245.632 -8 257 C-7.67 258.32 -7.34 259.64 -7 261 C-1.143 244.161 -2.997 226.118 -10.25 210 C-11.116 208.515 -11.116 208.515 -12 207 C-12.33 207 -12.66 207 -13 207 Z M29 258 C28.505 259.98 28.505 259.98 28 262 C28.66 260.68 29.32 259.36 30 258 C29.67 258 29.34 258 29 258 Z M-9 262 C-10.625 264.833 -10.625 264.833 -12 268 C-11.67 268.99 -11.34 269.98 -11 271 C-10.01 269.35 -9.02 267.7 -8 266 C-8.33 264.68 -8.66 263.36 -9 262 Z M27 262 C26.203 263.104 26.203 263.104 25.391 264.23 C24.684 265.206 23.978 266.182 23.25 267.188 C22.554 268.15 21.858 269.113 21.141 270.105 C19.154 272.791 17.105 275.407 15 278 C15.33 278.66 15.66 279.32 16 280 C20.603 274.946 24.69 270 28 264 C27.67 263.34 27.34 262.68 27 262 Z M-13 271 C-13.66 272.65 -14.32 274.3 -15 276 C-14.01 275.01 -13.02 274.02 -12 273 C-12.33 272.34 -12.66 271.68 -13 271 Z M-16 276 C-16.99 276.99 -17.98 277.98 -19 279 C-18.67 279.66 -18.34 280.32 -18 281 C-17.01 280.01 -16.02 279.02 -15 278 C-15.33 277.34 -15.66 276.68 -16 276 Z M-93 280 C-92.67 280.66 -92.34 281.32 -92 282 C-91.34 281.67 -90.68 281.34 -90 281 C-90.99 280.67 -91.98 280.34 -93 280 Z M-20 281 C-23.3 283.97 -26.6 286.94 -30 290 C-25.02 290 -22.521 286.232 -19 283 C-19.33 282.34 -19.66 281.68 -20 281 Z M-96 290 C-95.34 291.32 -94.68 292.64 -94 294 C-93.01 294 -92.02 294 -91 294 C-92.65 292.68 -94.3 291.36 -96 290 Z M-32 291 C-32.33 291.66 -32.66 292.32 -33 293 C-32.01 292.67 -31.02 292.34 -30 292 C-30.66 291.67 -31.32 291.34 -32 291 Z M-91 295 C-82.155 304.672 -70.023 308.945 -57.195 309.961 C-48.472 310.042 -40.219 308.944 -32 306 C-32.495 305.01 -32.495 305.01 -33 304 C-34.357 304.483 -34.357 304.483 -35.742 304.977 C-50.15 308.44 -68.207 307.681 -81.145 300.176 C-83.794 298.499 -86.401 296.755 -89 295 C-89.66 295 -90.32 295 -91 295 Z " fill="#000000" transform="translate(3768,194)"/>
<path d="M0 0 C1.65 0 3.3 0 5 0 C7.285 2.285 6.127 6.625 6.134 9.705 C6.132 10.976 6.129 12.248 6.127 13.559 C6.129 14.898 6.13 16.237 6.132 17.616 C6.136 22.141 6.133 26.666 6.129 31.191 C6.131 34.42 6.133 37.648 6.135 40.876 C6.139 49.674 6.137 58.471 6.134 67.268 C6.132 76.452 6.134 85.636 6.136 94.82 C6.138 110.248 6.135 125.675 6.13 141.102 C6.125 158.965 6.127 176.828 6.132 194.691 C6.137 209.998 6.137 225.304 6.135 240.61 C6.133 249.765 6.133 258.92 6.136 268.075 C6.139 276.681 6.137 285.287 6.131 293.892 C6.13 297.06 6.13 300.228 6.133 303.396 C6.135 307.702 6.132 312.008 6.127 316.314 C6.129 317.584 6.131 318.854 6.134 320.162 C6.114 328.772 6.114 328.772 5 331 C3.35 331 1.7 331 0 331 C-2.289 328.711 -1.127 324.351 -1.134 321.265 C-1.132 319.988 -1.129 318.712 -1.127 317.396 C-1.129 316.053 -1.13 314.709 -1.132 313.325 C-1.136 308.784 -1.133 304.242 -1.129 299.701 C-1.131 296.461 -1.133 293.221 -1.135 289.982 C-1.139 281.153 -1.137 272.325 -1.134 263.497 C-1.132 254.282 -1.134 245.067 -1.136 235.851 C-1.138 220.373 -1.135 204.894 -1.13 189.416 C-1.125 171.49 -1.127 153.564 -1.132 135.639 C-1.137 120.281 -1.137 104.923 -1.135 89.565 C-1.133 80.378 -1.133 71.192 -1.136 62.005 C-1.139 53.37 -1.137 44.735 -1.131 36.101 C-1.13 32.921 -1.13 29.742 -1.133 26.562 C-1.135 22.243 -1.132 17.923 -1.127 13.604 C-1.129 12.327 -1.131 11.051 -1.134 9.735 C-1.114 1.114 -1.114 1.114 0 0 Z " fill="#000000" transform="translate(1633,192)"/>
<path d="M0 0 C12.135 10.707 12.135 10.707 16.922 15.578 C16.922 16.238 16.922 16.898 16.922 17.578 C17.582 17.578 18.242 17.578 18.922 17.578 C21.285 20.219 23.613 22.89 25.922 25.578 C27.077 26.733 28.232 27.888 29.422 29.078 C33.114 32.77 36.505 36.631 39.922 40.578 C46.337 47.829 52.944 54.896 59.559 61.965 C64.477 67.249 69.303 72.613 74.082 78.023 C78.993 83.55 84.115 88.794 89.367 93.996 C92.72 97.385 95.811 100.967 98.922 104.578 C103.802 109.979 108.737 115.327 113.742 120.613 C115.018 121.963 116.295 123.313 117.609 124.703 C118.809 125.964 120.01 127.225 121.246 128.523 C123.922 131.578 123.922 131.578 123.922 133.578 C124.582 133.578 125.242 133.578 125.922 133.578 C128.294 136.211 130.62 138.884 132.922 141.578 C135.37 144.192 137.829 146.796 140.297 149.391 C144.57 153.924 148.736 158.449 152.609 163.328 C156.755 168.54 161.39 173.138 166.137 177.801 C169.587 181.241 172.756 184.875 175.922 188.578 C177.418 190.249 178.918 191.915 180.422 193.578 C183.294 196.755 186.125 199.96 188.922 203.203 C190.407 204.874 190.407 204.874 191.922 206.578 C192.252 206.578 192.582 206.578 192.922 206.578 C193.022 164.585 193.093 122.588 192.658 80.596 C192.626 77.304 192.598 74.013 192.576 70.721 C192.543 66.143 192.491 61.566 192.434 56.988 C192.427 55.652 192.421 54.315 192.414 52.938 C192.285 41.13 192.285 41.13 186.609 31.141 C180.585 27.638 174.829 27.138 167.922 26.578 C167.592 25.258 167.262 23.938 166.922 22.578 C167.922 21.578 167.922 21.578 170.662 21.458 C171.885 21.46 173.109 21.462 174.369 21.465 C175.751 21.465 177.132 21.465 178.555 21.465 C180.812 21.473 180.812 21.473 183.113 21.48 C185.408 21.483 185.408 21.483 187.75 21.485 C192.661 21.49 197.573 21.503 202.484 21.516 C205.804 21.521 209.124 21.525 212.443 21.529 C220.603 21.54 228.762 21.557 236.922 21.578 C237.252 22.568 237.582 23.558 237.922 24.578 C237.592 25.238 237.262 25.898 236.922 26.578 C234.874 26.974 232.806 27.27 230.734 27.516 C224.532 28.398 220.15 29.288 215.672 33.891 C212.215 39.199 211.664 44.05 211.601 50.305 C211.581 51.866 211.56 53.428 211.54 55.036 C211.528 56.741 211.516 58.446 211.504 60.203 C211.485 62.005 211.465 63.808 211.445 65.665 C211.385 71.636 211.342 77.607 211.305 83.578 C211.295 85.105 211.295 85.105 211.285 86.662 C211.223 96.272 211.17 105.881 211.136 115.491 C211.092 127.755 211.008 140.018 210.869 152.282 C210.774 160.92 210.726 169.557 210.711 178.196 C210.702 183.348 210.672 188.498 210.592 193.65 C210.514 199.407 210.512 205.16 210.528 210.918 C210.488 212.607 210.448 214.296 210.407 216.036 C210.564 228.87 214.923 234.778 223.922 243.578 C225.366 245.326 226.789 247.093 228.172 248.891 C240.541 264.071 253.984 277.593 270.922 287.578 C272.747 288.661 272.747 288.661 274.609 289.766 C289.292 295.936 303.285 296.047 318.922 295.578 C318.922 296.898 318.922 298.218 318.922 299.578 C302.547 307.409 280.651 306.963 263.695 301.043 C261.827 300.318 261.827 300.318 259.922 299.578 C258.739 299.167 257.555 298.756 256.336 298.332 C230.472 288.539 210.609 263.83 192.922 243.578 C191.159 241.634 189.388 239.696 187.609 237.766 C173.781 222.723 173.781 222.723 168.672 216.828 C164.04 211.579 159.255 206.484 154.469 201.375 C151.434 198.126 148.42 194.86 145.422 191.578 C141.245 187.007 137.028 182.474 132.797 177.953 C128.255 173.096 123.765 168.202 119.336 163.242 C116.195 159.776 112.995 156.367 109.797 152.953 C105.072 147.906 100.474 142.781 95.922 137.578 C92.435 133.826 88.932 130.089 85.422 126.359 C83.066 123.814 80.747 121.233 78.465 118.621 C74.811 114.452 71.047 110.415 67.234 106.391 C61.389 100.205 55.577 93.991 49.82 87.723 C47.754 85.48 45.674 83.25 43.586 81.027 C42.501 79.868 41.415 78.71 40.297 77.516 C39.315 76.473 38.332 75.43 37.32 74.355 C34.922 71.578 34.922 71.578 32.922 67.578 C32.262 67.578 31.602 67.578 30.922 67.578 C31.085 68.435 31.247 69.291 31.415 70.174 C31.915 73.53 32.039 76.657 32.029 80.048 C32.026 81.971 32.026 81.971 32.024 83.934 C32.014 86.027 32.014 86.027 32.004 88.161 C32.001 89.64 31.998 91.119 31.994 92.642 C31.987 95.852 31.978 99.062 31.966 102.272 C31.949 107.354 31.939 112.435 31.931 117.517 C31.906 131.965 31.871 146.412 31.826 160.86 C31.799 169.698 31.782 178.536 31.771 187.374 C31.765 190.741 31.755 194.108 31.741 197.475 C31.722 202.186 31.715 206.896 31.711 211.607 C31.698 213.69 31.698 213.69 31.684 215.815 C31.693 225.023 32.073 232.496 36.922 240.578 C41.959 244.356 45.675 244.301 51.805 244.855 C52.833 245.094 53.862 245.332 54.922 245.578 C55.582 246.898 56.242 248.218 56.922 249.578 C54.922 251.578 54.922 251.578 52.227 251.825 C50.511 251.823 50.511 251.823 48.76 251.821 C46.818 251.826 46.818 251.826 44.836 251.83 C43.431 251.823 42.026 251.816 40.578 251.809 C38.425 251.808 38.425 251.808 36.229 251.807 C33.189 251.804 30.15 251.796 27.11 251.784 C22.442 251.766 17.774 251.763 13.105 251.764 C10.159 251.759 7.212 251.753 4.266 251.746 C2.86 251.745 1.455 251.744 0.007 251.743 C-1.935 251.733 -1.935 251.733 -3.916 251.723 C-5.06 251.72 -6.205 251.716 -7.383 251.712 C-10.078 251.578 -10.078 251.578 -12.078 250.578 C-11.748 248.928 -11.418 247.278 -11.078 245.578 C-10.149 245.492 -9.219 245.405 -8.262 245.316 C1.768 244.218 1.768 244.218 9.922 238.578 C12.556 233.487 13.305 229.483 13.343 223.78 C13.369 221.453 13.369 221.453 13.395 219.078 C13.398 217.389 13.402 215.7 13.405 213.96 C13.42 212.17 13.435 210.381 13.45 208.537 C13.487 203.638 13.509 198.74 13.522 193.841 C13.531 190.777 13.544 187.713 13.557 184.65 C13.598 175.055 13.627 165.46 13.639 155.865 C13.652 144.806 13.705 133.747 13.792 122.688 C13.856 114.127 13.887 105.566 13.891 97.005 C13.894 91.897 13.911 86.79 13.965 81.683 C14.016 75.983 14.011 70.285 13.991 64.585 C14.033 62.06 14.033 62.06 14.075 59.485 C13.993 51.812 13.857 46.623 8.597 40.757 C7.05 39.352 5.492 37.958 3.922 36.578 C2.598 34.98 1.301 33.357 0.047 31.703 C-16.319 11.027 -35.266 -6.798 -62.078 -11.422 C-70.473 -12.01 -78.731 -11.449 -87.078 -10.422 C-87.408 -11.742 -87.738 -13.062 -88.078 -14.422 C-66.139 -36.361 -18.739 -15.856 0 0 Z " fill="#000000" transform="translate(1282.078125,222.421875)"/>
<path d="M0 0 C1 0.42 2.001 0.84 3.031 1.273 C29.209 13.191 44.809 39.838 56 65 C57.078 67.336 58.161 69.669 59.25 72 C60.08 73.785 60.08 73.785 60.926 75.605 C63.16 80.338 65.437 85.049 67.717 89.759 C72.741 100.137 77.63 110.541 82.254 121.105 C83.851 124.667 85.542 128.147 87.312 131.625 C93.515 143.832 99.025 156.393 104.648 168.875 C108.915 178.334 113.286 187.708 117.977 196.965 C120.352 201.701 122.653 206.469 124.938 211.25 C125.689 212.823 126.441 214.395 127.215 216.016 C129 220 129 220 130 224 C130.66 224 131.32 224 132 224 C132.33 222.866 132.66 221.731 133 220.562 C135.248 214.31 138.024 208.454 140.891 202.465 C142.84 198.339 144.69 194.188 146.5 190 C149.531 183.001 152.76 176.112 156.031 169.223 C157.927 165.156 159.727 161.06 161.5 156.938 C164.433 150.158 167.686 143.589 171.027 137.004 C173.63 131.721 175.959 126.337 178.289 120.93 C181.063 114.559 184.037 108.284 187 102 C187.639 100.628 188.279 99.257 188.938 97.844 C192.178 90.908 195.475 84.016 198.938 77.188 C205.699 63.757 211.667 49.948 217.492 36.09 C219 33 219 33 222 30 C223.32 30.33 224.64 30.66 226 31 C228.831 46.093 231.351 61.215 233.718 76.386 C237.947 103.441 242.327 130.47 246.764 157.491 C247.414 161.448 248.061 165.405 248.707 169.362 C251.705 187.72 254.72 206.071 258.203 224.344 C258.428 225.538 258.653 226.732 258.884 227.963 C263.466 251.422 270.831 272.967 287 291 C288.237 292.382 289.475 293.764 290.75 295.188 C306.489 309.306 325.239 314.884 346.016 315.789 C349 316 349 316 351 317 C350 321 350 321 349 322 C321.175 325.215 296.269 320.484 272.562 305.125 C271.717 304.424 270.871 303.723 270 303 C270 302.34 270 301.68 270 301 C268.68 300.34 267.36 299.68 266 299 C246.5 281.45 236.545 257.701 231.562 232.43 C231.347 231.34 231.131 230.25 230.908 229.127 C228.682 217.676 226.917 206.168 225.25 194.625 C224.916 192.343 224.582 190.062 224.248 187.78 C221.39 168.142 218.711 148.479 216.062 128.812 C215.865 127.35 215.668 125.888 215.465 124.382 C214.902 120.199 214.343 116.016 213.785 111.832 C213.536 109.976 213.536 109.976 213.281 108.082 C212.352 101.063 211.591 94.056 211 87 C209.066 89.901 207.665 92.712 206.199 95.871 C205.641 97.071 205.082 98.272 204.507 99.508 C203.906 100.805 203.306 102.102 202.688 103.438 C202.066 104.775 201.444 106.113 200.804 107.492 C199.508 110.283 198.212 113.074 196.918 115.866 C195.116 119.75 193.309 123.631 191.5 127.512 C183.967 143.679 176.501 159.87 169.438 176.25 C167.193 181.409 164.802 186.449 162.246 191.461 C158.125 199.662 154.318 207.973 150.625 216.375 C149.979 217.839 149.334 219.304 148.669 220.812 C143.794 231.965 139.298 243.224 135.051 254.629 C133.189 259.505 131.169 264.255 129 269 C125 268 125 268 122.992 264.957 C118.3 255.771 113.877 246.505 109.664 237.092 C107.211 231.617 104.657 226.222 101.938 220.875 C98.102 213.327 94.668 205.625 91.227 197.891 C88.608 192.138 85.773 186.517 82.91 180.883 C80.33 175.639 78.02 170.293 75.738 164.914 C74.435 161.98 73.037 159.087 71.594 156.219 C68.924 150.848 66.531 145.392 64.188 139.875 C60.725 131.806 57.021 123.941 53.016 116.125 C49.732 109.406 46.874 102.51 43.98 95.617 C42.428 91.997 40.781 88.508 39 85 C38.9 86.299 38.8 87.598 38.696 88.936 C31.958 176.057 31.958 176.057 28.73 202.715 C27.791 210.611 27.008 218.522 26.25 226.438 C26.11 227.82 25.97 229.202 25.826 230.626 C25.113 238.271 24.684 245.41 26 253 C30.954 257.954 34.206 257.985 41 259 C41.99 259.33 42.98 259.66 44 260 C44 261.32 44 262.64 44 264 C36.029 264.742 28.145 265.159 20.137 265.168 C19.06 265.171 17.984 265.175 16.875 265.178 C14.623 265.183 12.37 265.185 10.117 265.185 C6.679 265.188 3.241 265.206 -0.197 265.225 C-2.398 265.228 -4.6 265.23 -6.801 265.23 C-8.331 265.241 -8.331 265.241 -9.891 265.252 C-15.273 265.235 -19.911 264.791 -25 263 C-24.01 261.02 -24.01 261.02 -23 259 C-20.242 258.312 -20.242 258.312 -16.875 258 C-11.159 257.256 -6.86 256.298 -2 253 C1.864 247.634 3.703 243.406 4.562 236.875 C4.791 235.212 5.019 233.549 5.254 231.836 C5.5 229.91 5.746 227.984 6 226 C6.319 223.679 6.641 221.359 6.965 219.039 C8.805 205.718 10.484 192.386 11.873 179.01 C12.589 172.24 13.47 165.504 14.406 158.762 C16.416 144.186 18.075 129.573 19.702 114.95 C19.958 112.656 20.215 110.361 20.473 108.066 C20.599 106.945 20.724 105.823 20.854 104.667 C21.629 97.89 22.536 91.148 23.559 84.402 C27.002 65.087 27.002 65.087 20.551 47.223 C19.709 46.159 18.867 45.096 18 44 C16.784 42.173 16.784 42.173 15.543 40.309 C2.984 21.657 -12.219 6.457 -35 2 C-40.997 1.495 -46.986 1.192 -53 1 C-53.33 -0.32 -53.66 -1.64 -54 -3 C-39.196 -12.869 -14.929 -6.486 0 0 Z " fill="#000000" transform="translate(236,209)"/>
<path d="M0 0 C1.149 0.001 2.299 0.002 3.483 0.003 C4.797 0.001 6.111 0 7.465 -0.001 C9.648 0.004 9.648 0.004 11.874 0.01 C13.396 0.009 14.918 0.009 16.486 0.009 C21.545 0.01 26.604 0.018 31.663 0.025 C35.159 0.027 38.656 0.029 42.152 0.03 C51.376 0.034 60.601 0.043 69.825 0.054 C79.229 0.065 88.633 0.069 98.036 0.074 C116.504 0.085 134.973 0.102 153.441 0.123 C154.242 3.15 155.042 6.177 155.842 9.204 C156.287 10.889 156.733 12.575 157.192 14.311 C158.673 20.02 160.001 25.735 161.253 31.498 C161.672 33.403 162.091 35.309 162.523 37.271 C163.441 42.123 163.441 42.123 163.441 47.123 C162.121 47.123 160.801 47.123 159.441 47.123 C158.76 45.349 158.079 43.576 157.378 41.748 C151.722 28.297 143.569 19.971 130.019 14.166 C116.833 10.323 103.404 10.917 89.816 11.061 C86.653 11.088 83.49 11.113 80.327 11.132 C77.484 11.149 74.641 11.177 71.798 11.205 C67.441 11.123 67.441 11.123 64.441 10.123 C64.441 49.063 64.441 88.003 64.441 128.123 C76.341 127.979 88.242 127.834 100.503 127.686 C104.251 127.642 107.998 127.599 111.859 127.555 C114.835 127.517 117.812 127.478 120.788 127.439 C123.099 127.415 123.099 127.415 125.456 127.39 C126.937 127.369 128.419 127.349 129.945 127.328 C131.226 127.313 132.507 127.297 133.827 127.281 C140.708 126.98 144.813 126.18 150.441 122.123 C151.101 122.123 151.761 122.123 152.441 122.123 C156.684 113.984 156.684 113.984 158.941 105.186 C159.106 104.175 159.271 103.164 159.441 102.123 C160.761 101.463 162.081 100.803 163.441 100.123 C164.441 101.123 164.441 101.123 164.561 103.825 C164.559 105.031 164.556 106.236 164.554 107.479 C164.554 108.84 164.554 110.201 164.554 111.604 C164.549 113.086 164.544 114.569 164.538 116.096 C164.536 118.358 164.536 118.358 164.534 120.665 C164.528 125.505 164.516 130.345 164.503 135.186 C164.498 138.457 164.494 141.729 164.489 145 C164.478 153.041 164.462 161.082 164.441 169.123 C163.451 169.453 162.461 169.783 161.441 170.123 C159.441 168.123 159.441 168.123 158.628 162.498 C157.698 156.657 156.33 152.741 152.441 148.123 C144.464 143.378 138.243 142.029 129.15 141.918 C126.959 141.887 126.959 141.887 124.723 141.857 C123.199 141.84 121.675 141.824 120.105 141.807 C117.991 141.779 117.991 141.779 115.834 141.75 C110.578 141.682 105.322 141.622 100.066 141.561 C88.309 141.416 76.553 141.272 64.441 141.123 C64.441 180.723 64.441 220.323 64.441 261.123 C88.201 260.968 88.201 260.968 112.441 260.811 C119.897 260.773 119.897 260.773 127.503 260.735 C131.482 260.703 135.461 260.669 139.441 260.635 C140.959 260.63 140.959 260.63 142.508 260.626 C166.635 260.547 188.758 257.876 207.011 240.705 C214.945 232.247 220.465 222.527 225.441 212.123 C226.761 212.453 228.081 212.783 229.441 213.123 C230.441 215.123 230.441 215.123 229.761 217.615 C229.367 218.732 228.972 219.848 228.566 220.998 C225.927 228.656 223.414 236.348 220.941 244.061 C220.354 245.883 220.354 245.883 219.755 247.743 C217.228 255.609 214.769 263.493 212.413 271.412 C211.441 274.123 211.441 274.123 209.441 276.123 C206.7 276.318 203.95 276.376 201.203 276.377 C199.428 276.383 197.653 276.388 195.824 276.394 C193.861 276.39 191.898 276.386 189.876 276.382 C187.8 276.385 185.725 276.388 183.649 276.392 C177.998 276.402 172.347 276.398 166.697 276.392 C160.795 276.387 154.892 276.391 148.99 276.394 C139.077 276.398 129.164 276.393 119.251 276.384 C107.775 276.373 96.3 276.376 84.824 276.387 C74.987 276.397 65.15 276.398 55.313 276.393 C49.431 276.389 43.549 276.389 37.667 276.396 C32.138 276.401 26.61 276.397 21.081 276.386 C18.073 276.382 15.065 276.388 12.058 276.394 C9.395 276.386 9.395 276.386 6.678 276.377 C4.351 276.376 4.351 276.376 1.976 276.375 C-1.559 276.123 -1.559 276.123 -3.559 274.123 C-3.559 273.133 -3.559 272.143 -3.559 271.123 C-0.622 269.655 2.308 269.657 5.566 269.311 C14.151 268.196 20.867 266.053 26.441 259.123 C33.838 246.221 33.735 234.044 33.715 219.559 C33.72 217.599 33.726 215.638 33.731 213.618 C33.744 208.261 33.745 202.903 33.742 197.546 C33.741 193.063 33.746 188.58 33.751 184.097 C33.762 173.515 33.762 162.934 33.756 152.352 C33.75 141.459 33.763 130.567 33.784 119.674 C33.802 110.3 33.807 100.927 33.804 91.553 C33.802 85.964 33.805 80.376 33.819 74.787 C33.834 68.549 33.825 62.312 33.813 56.075 C33.821 54.239 33.828 52.403 33.836 50.512 C33.782 37.392 33.116 25.287 25.441 14.123 C18.955 8.581 12.896 7.021 4.566 5.998 C3.228 5.83 1.89 5.663 0.511 5.49 C-1.009 5.308 -1.009 5.308 -2.559 5.123 C-2.889 3.803 -3.219 2.483 -3.559 1.123 C-2.559 0.123 -2.559 0.123 0 0 Z " fill="#000000" transform="translate(1751.5593576431274,209.87695217132568)"/>
<path d="M0 0 C24.332 20.701 34.303 51.526 45.188 80.562 C46.408 83.797 47.63 87.031 48.852 90.266 C53.989 103.897 59.075 117.548 64.129 131.211 C95.058 227.229 95.058 227.229 164.188 295.562 C174.421 299.871 184.239 300.702 195.25 300.625 C196.932 300.616 198.614 300.607 200.348 300.598 C201.615 300.586 202.882 300.574 204.188 300.562 C204.517 301.223 204.848 301.882 205.188 302.562 C202.528 306.552 200.529 306.544 195.938 307.688 C194.633 308.02 193.328 308.353 191.984 308.695 C171.165 313.45 150.534 310.499 132.188 299.562 C124.546 294.623 117.791 288.798 111.188 282.562 C110.399 281.85 109.61 281.137 108.797 280.402 C100.668 272.759 94.468 263.74 88.188 254.562 C87.455 253.493 86.723 252.423 85.969 251.32 C76.435 236.591 69.363 219.934 63.188 203.562 C62.324 201.307 61.459 199.052 60.594 196.797 C46.188 159.142 46.188 159.142 46.188 155.562 C16.158 155.893 -13.872 156.222 -44.812 156.562 C-60.569 187.654 -60.569 187.654 -68.812 224.562 C-65.372 230.297 -63.847 231.024 -57.562 232.688 C-56.325 232.976 -55.087 233.265 -53.812 233.562 C-53.812 234.882 -53.812 236.202 -53.812 237.562 C-60.543 238.584 -67.185 238.708 -73.977 238.695 C-75.703 238.697 -75.703 238.697 -77.464 238.698 C-79.886 238.699 -82.308 238.697 -84.73 238.693 C-88.432 238.688 -92.134 238.693 -95.836 238.699 C-98.195 238.699 -100.555 238.697 -102.914 238.695 C-104.017 238.697 -105.121 238.699 -106.257 238.701 C-111.205 238.686 -115.965 238.619 -120.812 237.562 C-120.482 235.913 -120.153 234.262 -119.812 232.562 C-117.09 231.944 -117.09 231.944 -114.312 231.312 C-104.448 228.786 -98.258 225.418 -92.812 216.562 C-90.232 211.666 -88.018 206.637 -85.812 201.562 C-85.026 199.776 -84.24 197.989 -83.43 196.148 C-79.411 186.987 -75.479 177.794 -71.625 168.562 C-68.23 160.458 -64.578 152.501 -60.812 144.562 C-58.142 138.887 -55.639 133.187 -53.438 127.312 C-51.735 122.816 -49.879 118.466 -47.812 114.125 C-43.475 105 -39.512 95.716 -35.52 86.436 C-33.082 80.775 -30.631 75.126 -28.062 69.523 C-26.395 65.846 -24.838 62.219 -23.438 58.438 C-15.57 37.679 -15.57 37.679 -10.812 28.812 C-8.297 24.561 -8.297 24.561 -9.812 19.562 C-18.207 7.061 -28.456 1.93 -43 -1.75 C-55.018 -3.171 -66.177 -1.479 -77.812 1.562 C-78.308 -0.912 -78.308 -0.912 -78.812 -3.438 C-51.957 -14.55 -24.659 -17.614 0 0 Z M1.188 38.562 C-7.373 59.244 -15.834 79.949 -23.84 100.852 C-26.001 106.487 -28.21 112.103 -30.441 117.711 C-31.045 119.23 -31.649 120.748 -32.271 122.313 C-33.444 125.258 -34.62 128.202 -35.802 131.144 C-36.326 132.463 -36.85 133.782 -37.391 135.141 C-37.859 136.31 -38.327 137.48 -38.81 138.685 C-39.977 141.527 -39.977 141.527 -39.812 144.562 C-12.753 144.562 14.308 144.562 42.188 144.562 C40.096 136.894 37.853 129.679 35 122.312 C31.835 114.025 28.81 105.706 25.938 97.312 C23.636 90.603 21.215 84.002 18.395 77.492 C16.296 72.398 14.552 67.177 12.738 61.977 C11.177 57.532 9.573 53.106 7.938 48.688 C7.458 47.391 6.978 46.094 6.484 44.758 C5.28 41.484 5.28 41.484 3.188 38.562 C2.528 38.562 1.868 38.562 1.188 38.562 Z " fill="#000000" transform="translate(646.8125,235.4375)"/>
<path d="M0 0 C7.141 0.788 14.295 1.009 21.473 1.262 C25.602 1.508 25.602 1.508 26.602 2.508 C26.69 5.602 26.708 8.698 26.699 11.793 C26.696 13.685 26.693 15.576 26.689 17.525 C26.681 19.54 26.673 21.555 26.664 23.57 C26.659 25.589 26.654 27.608 26.65 29.627 C26.639 34.587 26.622 39.548 26.602 44.508 C24.952 44.508 23.302 44.508 21.602 44.508 C21.382 43.446 21.163 42.383 20.938 41.289 C18.695 31.3 16.315 24.74 8.539 17.758 C-2.377 11.52 -14.47 9.501 -26.805 12.273 C-36.569 15.319 -42.132 19.501 -48.398 27.508 C-53.882 38.475 -55.217 48.99 -51.898 60.883 C-45.452 72.809 -35.067 79.547 -24.398 87.508 C-21.954 89.416 -19.516 91.332 -17.086 93.258 C-11.913 97.338 -6.679 101.322 -1.398 105.262 C7.776 112.131 16.809 119.156 25.602 126.508 C27.107 127.745 28.613 128.983 30.164 130.258 C46.236 144.808 56.605 165.383 57.793 186.988 C58.39 206.79 51.999 225.133 38.883 240.113 C22.715 257.084 3.153 264.16 -19.969 265.754 C-43.033 266.236 -65.918 259.051 -82.945 243.121 C-97.124 228.017 -102.735 210.933 -102.543 190.582 C-101.978 174.644 -94.659 159.474 -84.398 147.508 C-82.438 145.795 -80.448 144.113 -78.398 142.508 C-76.913 143.498 -76.913 143.498 -75.398 144.508 C-76.398 148.508 -76.398 148.508 -79.648 153.445 C-89.982 169.338 -92.431 187.548 -89.898 206.188 C-86.607 220.589 -78.232 232.235 -66.023 240.445 C-47.908 251.011 -29.046 252.342 -8.848 247.574 C8.664 242.16 18.195 231.936 26.914 216.383 C33.578 201.08 32.047 185.607 26.789 170.195 C19.294 154.135 8.591 144.077 -5.398 133.508 C-8.359 131.198 -11.317 128.885 -14.273 126.57 C-21.338 121.078 -28.466 115.68 -35.637 110.328 C-40.303 106.829 -44.924 103.275 -49.535 99.703 C-52.064 97.765 -54.634 95.882 -57.211 94.008 C-58.789 92.77 -58.789 92.77 -60.398 91.508 C-60.398 90.848 -60.398 90.188 -60.398 89.508 C-61.058 89.508 -61.718 89.508 -62.398 89.508 C-72.133 78.614 -75.847 66.396 -75.742 51.953 C-74.514 36.068 -66.92 22.286 -55.398 11.508 C-38.506 -1.409 -20.408 -2.77 0 0 Z " fill="#000000" transform="translate(888.3984375,240.4921875)"/>
<path d="M0 0 C21.031 18.928 33.227 47.063 35.302 75.073 C35.435 79.158 35.468 83.226 35.438 87.312 C35.427 89.47 35.427 89.47 35.417 91.671 C35.181 107.338 32.455 121.687 26 136 C25.486 137.15 24.971 138.3 24.441 139.484 C10.824 168.291 -14.351 188.931 -43.723 200.207 C-82.22 213.287 -128.071 211.699 -164.949 194.117 C-176.01 188.414 -185.508 181.632 -194.613 173.176 C-196.35 171.593 -198.15 170.079 -199.984 168.609 C-216.9 153.973 -226.373 130.542 -230 109 C-230.171 108.088 -230.343 107.176 -230.519 106.237 C-232.888 90.297 -232.404 71.484 -228 56 C-227.66 54.773 -227.319 53.546 -226.969 52.281 C-222.752 38.493 -216.663 25.763 -207 15 C-206.29 14.171 -205.579 13.342 -204.848 12.488 C-194.361 0.454 -182.639 -7.817 -169 -16 C-167.68 -15.67 -166.36 -15.34 -165 -15 C-166.215 -10.142 -167.735 -9.194 -171.5 -6 C-191.274 11.733 -201.132 38.653 -202.84 64.859 C-204.251 101.345 -199.783 136.989 -174.562 165.375 C-155.029 185.775 -130.331 195.036 -102.297 196.246 C-92.367 196.361 -82.7 196.222 -73 194 C-71.595 193.682 -70.19 193.363 -68.742 193.035 C-54.077 189.35 -42.192 183.184 -30.391 173.785 C-28 172 -28 172 -25 171 C-25 170.34 -25 169.68 -25 169 C-24.34 169 -23.68 169 -23 169 C-22.34 167.68 -21.68 166.36 -21 165 C-19.659 163.597 -18.319 162.195 -16.938 160.75 C3.381 138.471 9.091 106.154 8 77 C5.665 48.568 -3.831 21.133 -25.562 1.812 C-45.485 -14.11 -69.546 -18.142 -94.402 -15.539 C-113.228 -12.392 -132.315 -3.907 -143.75 11.938 C-152.175 24.671 -154.405 36.991 -155 52 C-156.32 52.33 -157.64 52.66 -159 53 C-163.475 44.049 -161.64 31.654 -159.098 22.184 C-152.675 3.555 -140.552 -10.064 -123.188 -19.312 C-81.796 -38.538 -34.15 -28.698 0 0 Z " fill="#000000" transform="translate(1202,269)"/>
<path d="M0 0 C1.094 0.59 2.189 1.181 3.316 1.789 C10.11 5.589 16.09 9.949 22 15 C22.788 15.63 23.575 16.261 24.387 16.91 C45.069 34.195 57.506 59.067 63 85 C63.451 87.115 63.451 87.115 63.91 89.273 C70.367 123.21 63.268 156.451 45.066 185.523 C40.263 192.536 34.8 198.8 29 205 C28.196 205.874 27.391 206.748 26.562 207.648 C21.223 213.236 15.363 217.678 9 222 C8.148 222.597 7.296 223.194 6.418 223.809 C-22.23 243.093 -57.682 247.464 -91 241 C-127.121 232.749 -156.5 210.763 -176.578 180.023 C-194.266 150.639 -200.083 115.439 -192 82 C-185.469 57.516 -172.473 37.981 -155 20 C-154.258 19.232 -153.515 18.463 -152.75 17.672 C-112.559 -21.124 -47.815 -26.191 0 0 Z M-134.688 27.812 C-157.385 53.793 -167.887 89.94 -166 124 C-163.213 158.646 -149.693 191.505 -123.02 214.578 C-101.637 231.187 -76.451 237.032 -49.684 234.609 C-38.546 232.987 -28.993 229.089 -19 224 C-17.858 223.426 -16.716 222.853 -15.539 222.262 C11.506 207.203 26.98 177.816 35.75 149.312 C44.599 111.703 39.326 70.063 19 37 C2.895 13.134 -17.766 -0.593 -45.734 -6.586 C-81.214 -11.085 -110.567 2.31 -134.688 27.812 Z " fill="#000000" transform="translate(3355,268)"/>
<path d="M0 0 C4.899 2.092 4.899 2.092 10.812 1.75 C12.133 0.43 13.452 -0.89 14.812 -2.25 C16.133 -2.25 17.452 -2.25 18.812 -2.25 C21.347 13.535 20.967 29.809 20.812 45.75 C19.162 46.08 17.512 46.41 15.812 46.75 C15.466 45.408 15.466 45.408 15.113 44.039 C12.448 34.158 9.855 24.643 1.812 17.75 C0.802 16.781 -0.209 15.811 -1.25 14.812 C-14.487 4.517 -27.721 2.713 -44.188 3.75 C-53.337 5.488 -59.95 10.627 -66.5 17 C-71.965 25.906 -73.3 34.488 -72.188 44.75 C-69.896 53.915 -65.792 59.334 -59.188 65.75 C-58.012 66.905 -56.836 68.06 -55.625 69.25 C-49.166 74.345 -42.222 78.498 -35.188 82.75 C24.158 118.634 24.158 118.634 32.25 144.75 C36.435 162.3 34.351 179.337 26.023 195.219 C16 211.228 -0.724 223.268 -19.125 227.625 C-21.142 228.022 -23.162 228.4 -25.188 228.75 C-26.404 228.977 -27.621 229.204 -28.875 229.438 C-50.198 231.449 -70.894 225.441 -89.188 214.75 C-92.274 213.12 -94.754 211.845 -98.156 211.098 C-101.188 209.75 -101.188 209.75 -102.98 206.73 C-110.046 187.514 -113.497 170.073 -105.438 150.5 C-101.013 143.126 -95.691 136.395 -89.188 130.75 C-87.867 131.08 -86.548 131.41 -85.188 131.75 C-86.188 134.75 -86.188 134.75 -88.5 136.938 C-96.264 145.063 -97.614 155.151 -97.434 165.902 C-96.519 180.199 -90.033 192.477 -80.188 202.75 C-66.583 214.675 -51.364 219.327 -33.441 219.059 C-21.856 218.218 -11.02 213.769 -2.867 205.355 C8.005 192.297 10.086 179.446 8.812 162.75 C2.848 138.79 -19.684 126.668 -39.188 114.75 C-41.102 113.605 -43.017 112.462 -44.934 111.32 C-54.903 105.363 -64.547 99.58 -73.188 91.75 C-74.357 90.791 -74.357 90.791 -75.551 89.812 C-85.494 81.523 -92.535 71.523 -95.188 58.75 C-96.157 47.378 -96.286 37.078 -91.188 26.75 C-90.713 25.77 -90.239 24.791 -89.75 23.781 C-82.94 10.817 -71.388 1.463 -57.668 -3.531 C-38.178 -9.444 -18.895 -7.214 0 0 Z " fill="#000000" transform="translate(2993.1875,261.25)"/>
<path d="M0 0 C25.08 0 50.16 0 76 0 C76.99 1.98 76.99 1.98 78 4 C77 5 77 5 71.625 5.812 C65.76 6.406 65.76 6.406 63 11 C62.415 21.099 67.722 27.891 73 36 C75.043 39.249 77.085 42.499 79.125 45.75 C82.851 51.627 86.589 57.498 90.34 63.359 C93.058 67.682 95.678 72.065 98.301 76.445 C99.749 79.082 99.749 79.082 102 80 C102.66 78.35 103.32 76.7 104 75 C105.679 72.486 107.417 70.012 109.188 67.562 C114.141 60.634 119.014 53.661 123.812 46.625 C124.422 45.735 125.031 44.845 125.659 43.928 C137.34 28.799 137.34 28.799 141 11 C138.232 6.402 138.232 6.402 132.312 5.75 C130.559 5.502 128.806 5.255 127 5 C127.33 3.35 127.66 1.7 128 0 C146.81 0 165.62 0 185 0 C185.33 1.65 185.66 3.3 186 5 C185.094 5.147 184.188 5.294 183.254 5.445 C175.029 6.96 169.664 8.975 163 14 C162.01 14.33 161.02 14.66 160 15 C160 15.66 160 16.32 160 17 C158.341 18.674 156.673 20.339 155 22 C153.435 24.05 151.917 26.137 150.438 28.25 C149.565 29.49 148.692 30.73 147.793 32.008 C146.871 33.325 145.95 34.643 145 36 C143.084 38.709 141.167 41.417 139.25 44.125 C135.984 48.756 132.724 53.391 129.477 58.035 C128.882 58.885 128.288 59.735 127.675 60.61 C126.482 62.318 125.291 64.027 124.102 65.737 C119.773 71.951 115.293 78.038 110.695 84.055 C108.501 87.3 108.501 87.3 109 93 C111.147 96.915 111.147 96.915 114.125 101 C115.218 102.584 116.311 104.169 117.438 105.801 C118.02 106.643 118.603 107.486 119.203 108.354 C122.287 112.895 125.199 117.544 128.125 122.188 C132.071 128.429 136.057 134.629 140.188 140.75 C144.85 147.674 149.16 154.791 153.484 161.93 C155.88 165.806 158.405 169.508 161.07 173.199 C163.782 177.135 166.281 181.196 168.812 185.25 C183.179 208.912 183.179 208.912 207 221 C210.987 221.765 210.987 221.765 214 222 C214.33 223.32 214.66 224.64 215 226 C214 227 214 227 211.222 227.12 C209.981 227.118 208.74 227.116 207.461 227.114 C206.059 227.113 204.658 227.113 203.214 227.113 C201.688 227.108 200.162 227.103 198.59 227.098 C197.038 227.096 195.485 227.095 193.886 227.093 C188.903 227.088 183.92 227.075 178.938 227.062 C175.57 227.057 172.202 227.053 168.834 227.049 C160.556 227.038 152.278 227.021 144 227 C143.67 225.68 143.34 224.36 143 223 C145.322 220.678 150.874 221.277 154 221 C152.748 213.816 149.487 208.677 145.375 202.812 C144.088 200.932 142.803 199.051 141.52 197.168 C140.904 196.27 140.289 195.372 139.655 194.447 C137.701 191.558 135.862 188.613 134.062 185.625 C129.894 178.74 125.472 172.023 121.062 165.292 C116.22 157.892 111.442 150.456 106.688 143 C100.899 133.927 95.03 124.915 89 116 C86.327 119.662 83.661 123.329 81 127 C80.206 128.096 79.412 129.191 78.594 130.32 C72.526 138.75 66.72 147.331 61 156 C51.516 170.37 51.516 170.37 47.125 176.312 C41.457 184.008 36.231 192.003 31 200 C30.318 201.034 29.636 202.068 28.934 203.133 C26.05 207.677 23.781 211.517 24 217 C28.268 221.268 29.315 221.563 35 222 C35 223.65 35 225.3 35 227 C17.51 227 0.02 227 -18 227 C-18.33 225.68 -18.66 224.36 -19 223 C-18 222 -18 222 -12.875 221.125 C4.564 217.786 14.236 205.319 23.903 191.225 C27.796 185.382 31.577 179.467 35.355 173.549 C38.093 169.306 40.987 165.177 43.887 161.043 C46.349 157.498 48.738 153.909 51.125 150.312 C55.001 144.478 58.964 138.724 63 133 C65.221 129.801 67.436 126.598 69.645 123.391 C71.268 121.054 72.913 118.732 74.574 116.422 C75.395 115.272 76.216 114.122 77.062 112.938 C77.817 111.895 78.571 110.852 79.348 109.777 C81.341 106.966 81.341 106.966 81 103 C79.306 99.842 77.494 96.746 75.625 93.688 C74.806 92.344 74.806 92.344 73.971 90.973 C69.976 84.463 65.784 78.101 61.5 71.777 C57.721 66.067 54.204 60.203 50.656 54.348 C47.604 49.352 44.449 44.433 41.262 39.523 C37.884 34.261 34.623 28.927 31.359 23.594 C25.833 15.177 20.715 10.01 11 7 C7.009 6.212 3.028 5.595 -1 5 C-0.67 3.35 -0.34 1.7 0 0 Z " fill="#000000" transform="translate(2001,259)"/>
<path d="M0 0 C1.281 0.002 2.563 0.004 3.883 0.006 C5.35 0.003 6.816 0 8.328 -0.003 C9.947 0.004 11.567 0.012 13.236 0.019 C14.934 0.019 16.631 0.018 18.38 0.018 C24.018 0.02 29.656 0.035 35.294 0.051 C39.193 0.055 43.091 0.057 46.989 0.059 C56.218 0.066 65.448 0.082 74.677 0.102 C85.182 0.124 95.688 0.135 106.193 0.145 C127.807 0.166 149.422 0.202 171.036 0.246 C172.972 4.117 173.524 6.579 174.072 10.805 C174.241 12.078 174.411 13.351 174.585 14.662 C174.755 15.989 174.924 17.316 175.099 18.684 C175.443 21.307 175.788 23.931 176.134 26.555 C176.284 27.718 176.433 28.881 176.588 30.08 C176.976 32.817 177.494 35.535 178.036 38.246 C178.075 41.246 178.081 44.246 178.036 47.246 C176.386 46.916 174.736 46.586 173.036 46.246 C172.745 45.184 172.454 44.122 172.154 43.027 C168.304 29.76 163.725 22.606 152.036 15.246 C139.999 9.332 125.074 11.143 111.911 10.723 C110.478 10.677 109.045 10.631 107.568 10.583 C104.057 10.471 100.547 10.358 97.036 10.246 C97.097 35.941 97.174 61.636 97.272 87.331 C97.317 99.262 97.357 111.193 97.383 123.123 C97.406 133.522 97.439 143.92 97.485 154.319 C97.509 159.825 97.528 165.331 97.534 170.837 C97.541 176.983 97.572 183.129 97.604 189.276 C97.603 191.102 97.601 192.928 97.6 194.81 C97.612 196.485 97.625 198.161 97.638 199.887 C97.642 201.341 97.647 202.795 97.652 204.293 C98.308 211.032 100.258 214.468 105.036 219.246 C109.881 221.387 114.795 221.77 120.036 222.246 C120.366 223.566 120.696 224.886 121.036 226.246 C120.036 227.246 120.036 227.246 117.145 227.366 C115.85 227.364 114.556 227.362 113.222 227.36 C111.76 227.36 110.299 227.359 108.793 227.359 C107.202 227.354 105.61 227.349 103.97 227.344 C102.351 227.342 100.732 227.341 99.064 227.339 C93.868 227.334 88.671 227.321 83.474 227.309 C79.962 227.304 76.449 227.299 72.937 227.295 C64.303 227.284 55.67 227.267 47.036 227.246 C46.541 224.771 46.541 224.771 46.036 222.246 C46.917 222.137 47.797 222.027 48.704 221.914 C49.866 221.756 51.027 221.597 52.224 221.434 C53.373 221.283 54.521 221.132 55.704 220.977 C61.11 219.791 63.758 217.617 67.036 213.246 C71.926 201.023 70.196 185.813 70.242 172.793 C70.252 171.035 70.262 169.276 70.272 167.465 C70.303 161.714 70.328 155.962 70.353 150.211 C70.373 146.2 70.394 142.188 70.416 138.177 C70.466 128.736 70.511 119.294 70.554 109.853 C70.603 99.093 70.658 88.334 70.714 77.574 C70.827 55.465 70.934 33.355 71.036 11.246 C65.995 11.217 60.953 11.199 55.911 11.184 C54.503 11.175 53.094 11.167 51.642 11.158 C28.605 10.856 28.605 10.856 8.036 20.246 C7.046 20.576 6.056 20.906 5.036 21.246 C4.376 22.566 3.716 23.886 3.036 25.246 C2.108 26.731 1.18 28.216 0.224 29.746 C-3.178 35.346 -5.557 41.159 -7.964 47.246 C-9.284 47.246 -10.604 47.246 -11.964 47.246 C-12.321 39.709 -10.966 32.679 -9.589 25.309 C-9.367 24.085 -9.145 22.861 -8.917 21.6 C-5.043 0.419 -5.043 0.419 0 0 Z " fill="#000000" transform="translate(2221.9635181427,258.75390434265137)"/>
<path d="M0 0 C1.45 -0.003 2.901 -0.007 4.395 -0.01 C9.212 -0.02 14.029 -0.022 18.846 -0.023 C22.179 -0.026 25.512 -0.029 28.845 -0.033 C35.839 -0.039 42.833 -0.041 49.828 -0.04 C58.813 -0.04 67.799 -0.054 76.785 -0.071 C83.67 -0.082 90.555 -0.084 97.44 -0.083 C100.754 -0.085 104.068 -0.089 107.382 -0.097 C112.006 -0.106 116.63 -0.104 121.254 -0.098 C122.637 -0.103 124.02 -0.109 125.445 -0.115 C134.899 -0.083 134.899 -0.083 137.127 2.145 C138.634 8.02 139.673 14.002 140.814 19.958 C141.148 21.624 141.481 23.29 141.824 25.007 C142.134 26.606 142.444 28.205 142.764 29.852 C143.049 31.322 143.335 32.791 143.63 34.305 C144.127 38.145 144.127 38.145 143.127 43.145 C141.807 43.145 140.487 43.145 139.127 43.145 C138.742 41.803 138.742 41.803 138.35 40.434 C134.858 29.408 130.253 22.47 120.502 16.145 C103.053 8.169 81.27 11.017 62.439 11.083 C54.086 11.103 45.733 11.124 37.127 11.145 C37.127 41.175 37.127 71.205 37.127 102.145 C44.985 102.207 52.843 102.269 60.939 102.333 C64.626 102.374 64.626 102.374 68.388 102.416 C71.331 102.427 71.331 102.427 74.334 102.438 C75.336 102.454 76.337 102.469 77.37 102.485 C86.159 102.488 93.965 101.517 101.127 96.145 C101.787 96.145 102.447 96.145 103.127 96.145 C104.631 92.384 105.986 88.674 107.252 84.833 C107.871 82.956 108.489 81.079 109.127 79.145 C110.447 79.145 111.767 79.145 113.127 79.145 C113.326 85.645 113.509 92.145 113.689 98.645 C113.746 100.467 113.802 102.288 113.859 104.165 C114.148 114.895 114.04 125.448 113.127 136.145 C111.807 136.145 110.487 136.145 109.127 136.145 C108.9 135.197 108.673 134.248 108.439 133.27 C106.429 126.953 104.329 121.019 99.189 116.645 C92.054 113.15 85.611 112.81 77.729 112.731 C76.538 112.712 75.348 112.692 74.122 112.673 C70.332 112.613 66.542 112.566 62.752 112.52 C60.178 112.482 57.604 112.443 55.029 112.403 C48.729 112.307 42.428 112.223 36.127 112.145 C36.188 123.855 36.265 135.564 36.363 147.274 C36.407 152.711 36.447 158.149 36.473 163.587 C36.499 168.839 36.54 174.091 36.59 179.343 C36.615 182.312 36.625 185.282 36.635 188.251 C36.654 190.072 36.674 191.894 36.695 193.77 C36.711 196.165 36.711 196.165 36.728 198.608 C37.165 203.577 38.196 207.549 40.127 212.145 C49.117 218.888 58.967 217.482 69.67 217.461 C73.021 217.458 76.372 217.481 79.723 217.507 C98.679 217.565 114.463 215.711 130.127 204.208 C137.92 196.252 142.368 187.097 147.127 177.145 C148.447 177.145 149.767 177.145 151.127 177.145 C150.288 187.343 147.862 196.78 145.252 206.645 C144.805 208.396 144.357 210.146 143.896 211.95 C143.459 213.613 143.023 215.276 142.572 216.989 C142.175 218.507 141.779 220.025 141.37 221.589 C140.127 225.145 140.127 225.145 137.127 227.145 C134.368 227.391 134.368 227.391 130.958 227.386 C129.02 227.39 129.02 227.39 127.044 227.394 C125.624 227.387 124.204 227.38 122.741 227.372 C121.249 227.373 119.756 227.373 118.218 227.373 C113.267 227.372 108.316 227.356 103.365 227.341 C99.939 227.337 96.513 227.334 93.087 227.332 C84.057 227.324 75.026 227.305 65.996 227.283 C56.786 227.262 47.577 227.253 38.367 227.243 C20.287 227.221 2.207 227.187 -15.873 227.145 C-16.203 226.155 -16.533 225.165 -16.873 224.145 C-16.378 223.155 -16.378 223.155 -15.873 222.145 C-12.885 221.653 -9.896 221.165 -6.9 220.719 C-3.506 220.076 -0.854 218.871 2.127 217.145 C2.787 217.145 3.447 217.145 4.127 217.145 C6.946 210.098 8.377 203.917 8.381 196.328 C8.387 194.797 8.392 193.266 8.398 191.689 C8.394 190.028 8.39 188.368 8.386 186.657 C8.389 184.894 8.393 183.13 8.396 181.313 C8.404 176.491 8.402 171.669 8.396 166.846 C8.391 161.792 8.395 156.738 8.398 151.683 C8.402 143.196 8.397 134.709 8.388 126.222 C8.377 116.42 8.38 106.618 8.391 96.816 C8.4 88.39 8.402 79.963 8.396 71.537 C8.393 66.508 8.393 61.48 8.4 56.452 C8.405 50.846 8.397 45.24 8.386 39.634 C8.39 37.973 8.394 36.313 8.398 34.602 C8.392 33.071 8.387 31.54 8.381 29.963 C8.38 28.639 8.379 27.314 8.379 25.95 C7.951 19.481 7.026 13.658 2.127 9.145 C-3.787 6.29 -9.36 5.598 -15.873 5.145 C-15.873 3.825 -15.873 2.505 -15.873 1.145 C-11.381 -1.101 -5.002 -0.002 0 0 Z " fill="#000000" transform="translate(2439.873046875,258.854736328125)"/>
<path d="M0 0 C1.925 -0.121 3.849 -0.242 5.832 -0.367 C19.973 -0.696 19.973 -0.696 26.636 4.267 C30.148 8.024 33.239 11.836 36.25 16 C37.446 17.341 38.642 18.681 39.875 20.062 C41.546 22.012 41.546 22.012 43.25 24 C44.567 25.533 44.567 25.533 45.91 27.098 C50.061 31.935 54.208 36.776 58.34 41.629 C62.966 47.053 67.613 52.438 72.438 57.688 C76.484 62.096 80.278 66.661 84.035 71.316 C86.917 74.808 89.962 78.136 93.012 81.48 C95.278 84.032 97.425 86.652 99.562 89.312 C103.921 94.706 108.608 99.742 113.34 104.809 C116.708 108.502 119.836 112.346 122.965 116.242 C126.393 120.38 130.05 124.296 133.699 128.238 C137.856 132.738 141.864 137.359 145.816 142.039 C152.585 150.024 159.593 157.721 166.805 165.309 C169.119 167.788 171.375 170.324 173.57 172.91 C175.884 175.977 175.884 175.977 178.25 177 C177.92 175.68 177.59 174.36 177.25 173 C177.197 168.433 177.205 163.884 177.26 159.318 C177.273 157.911 177.286 156.504 177.299 155.055 C177.327 151.995 177.358 148.935 177.391 145.875 C177.442 141.028 177.486 136.181 177.527 131.335 C177.647 117.552 177.778 103.77 177.919 89.988 C178.004 81.561 178.08 73.134 178.149 64.706 C178.177 61.497 178.209 58.288 178.246 55.079 C178.296 50.582 178.334 46.085 178.369 41.588 C178.387 40.268 178.406 38.949 178.424 37.59 C178.587 24.521 178.587 24.521 174.125 12.5 C168.56 7.661 162.435 6.642 155.25 6 C154.92 5.01 154.59 4.02 154.25 3 C157.463 -0.213 161.122 0.759 165.421 0.748 C166.695 0.755 167.969 0.762 169.281 0.77 C171.234 0.77 171.234 0.77 173.227 0.771 C175.984 0.774 178.741 0.782 181.499 0.794 C185.732 0.812 189.966 0.815 194.199 0.814 C196.872 0.819 199.546 0.825 202.219 0.832 C204.13 0.834 204.13 0.834 206.079 0.835 C215.018 0.884 215.018 0.884 217.25 2 C216.92 3.32 216.59 4.64 216.25 6 C215.309 6.159 214.368 6.317 213.398 6.48 C203.747 8.107 203.747 8.107 196.25 14 C192.738 20.539 192.134 27.06 192.099 34.385 C192.09 35.626 192.082 36.866 192.073 38.144 C192.067 40.16 192.067 40.16 192.061 42.217 C192.052 43.648 192.044 45.079 192.035 46.553 C192.018 49.664 192.003 52.774 191.99 55.885 C191.968 60.855 191.941 65.824 191.913 70.794 C191.853 81.404 191.801 92.015 191.75 102.625 C191.359 182.135 191.359 182.135 190.781 209.398 C190.744 211.232 190.707 213.065 190.668 214.954 C190.629 216.569 190.589 218.185 190.549 219.849 C190.515 221.224 190.482 222.599 190.447 224.015 C190.25 227 190.25 227 189.25 228 C184.25 228 184.25 228 181.383 225.438 C179.894 223.736 179.894 223.736 178.375 222 C177.315 220.802 176.256 219.605 175.164 218.371 C173.722 216.702 173.722 216.702 172.25 215 C171.095 213.701 169.94 212.401 168.75 211.062 C166.665 208.643 164.584 206.219 162.512 203.789 C157.765 198.228 153.012 192.694 148.062 187.312 C144.761 183.72 141.623 180.049 138.562 176.25 C136.055 173.14 133.584 170.334 130.75 167.5 C127.934 164.684 125.488 161.904 123 158.812 C118.802 153.597 114.348 148.674 109.801 143.762 C106.544 140.235 103.388 136.633 100.25 133 C99.333 131.939 98.417 130.878 97.473 129.785 C92.828 124.39 88.211 118.986 83.75 113.438 C79.451 108.134 74.819 103.18 70.16 98.191 C66.792 94.498 63.664 90.654 60.535 86.758 C57.107 82.62 53.45 78.704 49.801 74.762 C45.56 70.17 41.477 65.449 37.438 60.68 C30.788 52.82 30.788 52.82 23.625 45.438 C20.25 42 20.25 42 18.25 37 C17.59 37 16.93 37 16.25 37 C16.413 37.85 16.576 38.701 16.743 39.577 C17.256 43.038 17.367 46.276 17.357 49.773 C17.355 51.798 17.355 51.798 17.352 53.864 C17.342 56.068 17.342 56.068 17.332 58.318 C17.329 59.874 17.326 61.431 17.322 63.035 C17.315 66.415 17.306 69.796 17.295 73.176 C17.277 78.526 17.267 83.876 17.259 89.227 C17.234 104.439 17.199 119.652 17.154 134.864 C17.127 144.169 17.11 153.474 17.099 162.778 C17.093 166.324 17.083 169.87 17.069 173.415 C17.05 178.375 17.043 183.334 17.039 188.294 C17.03 189.758 17.021 191.222 17.012 192.73 C17.021 202.118 17.305 209.758 22.25 218 C26.708 220.675 28.673 221.489 33.562 222.188 C35.439 222.456 37.316 222.724 39.25 223 C39.58 224.32 39.91 225.64 40.25 227 C39.25 228 39.25 228 33.629 228.114 C31.095 228.113 28.561 228.108 26.027 228.098 C24.697 228.096 23.367 228.095 21.996 228.093 C17.726 228.088 13.457 228.075 9.188 228.062 C6.301 228.057 3.415 228.053 0.529 228.049 C-6.564 228.038 -13.657 228.02 -20.75 228 C-21.08 226.68 -21.41 225.36 -21.75 224 C-19.279 221.529 -13.609 221.617 -10.266 221.012 C-6.499 219.928 -4.532 218.726 -1.75 216 C1.371 209.757 2.376 204.439 2.417 197.512 C2.435 195.173 2.435 195.173 2.452 192.787 C2.46 191.075 2.467 189.363 2.475 187.599 C2.486 185.797 2.497 183.995 2.509 182.138 C2.544 176.16 2.571 170.182 2.594 164.203 C2.598 163.186 2.602 162.168 2.606 161.12 C2.642 151.524 2.674 141.928 2.695 132.332 C2.722 120.061 2.773 107.791 2.855 95.521 C2.911 86.891 2.94 78.261 2.949 69.63 C2.956 64.476 2.974 59.323 3.021 54.17 C3.072 48.419 3.069 42.67 3.061 36.919 C3.084 35.215 3.108 33.511 3.132 31.755 C3.266 22.159 3.266 22.159 -1.129 13.997 C-7.766 8.504 -13.202 7.355 -21.75 6 C-22.08 4.68 -22.41 3.36 -22.75 2 C-16.483 -1.133 -6.865 0.207 0 0 Z " fill="#000000" transform="translate(2637.75,258)"/>
<path d="M0 0 C21.78 0 43.56 0 66 0 C66.495 2.475 66.495 2.475 67 5 C65.453 5.268 63.906 5.536 62.312 5.812 C56.779 7.049 53.345 8.319 49.75 12.812 C46.788 18.207 46.874 23.508 46.866 29.57 C46.862 31.097 46.858 32.624 46.853 34.197 C46.854 35.863 46.854 37.529 46.855 39.245 C46.851 41.007 46.848 42.769 46.845 44.583 C46.837 49.41 46.833 54.237 46.833 59.063 C46.832 62.081 46.83 65.098 46.827 68.116 C46.818 78.65 46.814 89.183 46.815 99.717 C46.815 109.526 46.805 119.335 46.789 129.143 C46.776 137.573 46.771 146.003 46.771 154.433 C46.771 159.464 46.769 164.495 46.758 169.526 C46.748 175.14 46.751 180.753 46.757 186.366 C46.751 188.027 46.746 189.687 46.74 191.397 C46.482 206.197 46.482 206.197 53 219 C57.462 221.129 62.114 221.495 67 222 C67.33 223.32 67.66 224.64 68 226 C67 227 67 227 64.336 227.12 C62.554 227.117 62.554 227.117 60.736 227.114 C59.395 227.113 58.053 227.113 56.671 227.113 C54.481 227.106 54.481 227.106 52.246 227.098 C50.76 227.096 49.275 227.095 47.744 227.093 C42.975 227.088 38.206 227.075 33.438 227.062 C30.214 227.057 26.991 227.053 23.768 227.049 C15.845 227.038 7.923 227.021 0 227 C-0.495 224.525 -0.495 224.525 -1 222 C0.361 221.897 1.722 221.794 3.125 221.688 C8.916 220.871 12.216 219.884 16.25 215.625 C21.202 205.368 20.292 192.784 20.275 181.65 C20.28 179.961 20.285 178.271 20.29 176.53 C20.304 170.977 20.303 165.424 20.301 159.871 C20.305 155.995 20.309 152.119 20.314 148.242 C20.321 140.132 20.321 132.021 20.316 123.91 C20.31 114.559 20.322 105.207 20.343 95.856 C20.363 86.825 20.366 77.795 20.363 68.764 C20.363 64.936 20.368 61.109 20.378 57.281 C20.391 51.927 20.384 46.574 20.372 41.22 C20.38 39.648 20.388 38.075 20.395 36.454 C20.531 20.9 20.531 20.9 13 8 C9.522 6.876 9.522 6.876 5.75 6.25 C4.487 6.008 3.223 5.765 1.922 5.516 C0.958 5.345 -0.007 5.175 -1 5 C-0.67 3.35 -0.34 1.7 0 0 Z " fill="#000000" transform="translate(3057,259)"/>
<path d="M0 0 C6.208 -0.203 12.415 -0.328 18.625 -0.438 C20.387 -0.496 22.149 -0.555 23.965 -0.615 C26.508 -0.649 26.508 -0.649 29.102 -0.684 C31.442 -0.739 31.442 -0.739 33.831 -0.795 C39.346 0.257 40.811 2.509 44 7 C44.871 8.146 45.743 9.292 46.641 10.473 C47.502 11.657 48.363 12.842 49.25 14.062 C50.208 15.379 51.166 16.695 52.152 18.051 C54.718 21.609 57.269 25.176 59.812 28.75 C69.042 41.709 78.572 54.447 88.129 67.164 C94.503 75.68 100.779 84.264 106.938 92.938 C111.468 99.304 116.151 105.547 120.855 111.785 C124.162 116.218 127.399 120.696 130.625 125.188 C134.358 130.381 138.131 135.518 142.062 140.562 C148.792 149.221 155.038 158.233 161.246 167.27 C163.998 171.789 163.998 171.789 168 175 C167.755 173.702 167.755 173.702 167.504 172.377 C166.796 166.23 166.895 160.144 166.934 153.962 C166.941 151.848 166.941 151.848 166.948 149.692 C166.959 146.637 166.971 143.582 166.986 140.527 C167.008 135.689 167.022 130.851 167.034 126.012 C167.067 112.257 167.109 98.503 167.171 84.748 C167.209 76.33 167.232 67.913 167.246 59.495 C167.254 56.29 167.267 53.086 167.287 49.882 C167.313 45.397 167.321 40.912 167.325 36.427 C167.343 34.449 167.343 34.449 167.362 32.432 C167.342 23.324 166.64 15.52 161 8 C156.687 5.844 152.705 4.969 148 4 C148 2.68 148 1.36 148 0 C163.84 0 179.68 0 196 0 C196.33 1.32 196.66 2.64 197 4 C195.618 4.454 194.236 4.908 192.812 5.375 C189.509 6.491 186.237 7.705 183 9 C180.345 15.041 179.623 20.332 179.615 26.883 C179.605 28.624 179.595 30.365 179.585 32.159 C179.59 34.049 179.595 35.938 179.599 37.884 C179.594 39.91 179.587 41.936 179.578 43.962 C179.563 48.312 179.557 52.661 179.559 57.01 C179.561 63.884 179.541 70.758 179.519 77.632 C179.478 90.972 179.459 104.313 179.442 117.653 C179.42 134.657 179.387 151.66 179.335 168.663 C179.315 175.501 179.306 182.338 179.304 189.175 C179.302 193.419 179.291 197.663 179.278 201.907 C179.271 204.822 179.275 207.738 179.279 210.654 C179.269 213.24 179.269 213.24 179.258 215.879 C179.257 217.384 179.255 218.889 179.253 220.439 C179 224 179 224 177 227 C171.359 225.59 170.348 222.737 167 218 C165.631 216.162 164.255 214.329 162.875 212.5 C162.108 211.476 161.341 210.453 160.551 209.398 C158.739 206.985 156.923 204.573 155.105 202.164 C149.481 194.698 143.961 187.176 138.555 179.551 C135.799 175.72 132.97 171.952 130.125 168.188 C125.935 162.632 121.866 157.013 117.875 151.312 C113.625 145.252 109.241 139.344 104.695 133.504 C97.162 123.711 89.895 113.703 82.75 103.625 C78.835 98.116 74.77 92.746 70.629 87.406 C59.51 72.999 48.803 58.278 38.152 43.523 C36.996 41.922 35.84 40.32 34.648 38.669 C33.774 37.459 32.9 36.248 32 35 C31.953 56.619 31.918 78.237 31.896 99.856 C31.886 109.894 31.872 119.933 31.849 129.971 C31.827 139.658 31.815 149.345 31.81 159.032 C31.807 162.728 31.799 166.424 31.789 170.121 C31.774 175.297 31.772 180.472 31.773 185.648 C31.766 187.177 31.759 188.707 31.751 190.282 C31.657 204.57 31.657 204.57 38 217 C42.313 219.156 46.295 220.031 51 221 C51 222.32 51 223.64 51 225 C34.17 225 17.34 225 0 225 C-0.33 223.68 -0.66 222.36 -1 221 C0 220 0 220 4.812 219.062 C9.941 218.245 9.941 218.245 14 216 C17.8 209.269 19.123 204.078 19.147 196.422 C19.154 194.843 19.161 193.265 19.169 191.638 C19.172 189.904 19.174 188.17 19.177 186.383 C19.184 184.559 19.19 182.734 19.197 180.854 C19.217 174.801 19.228 168.748 19.238 162.695 C19.242 160.612 19.246 158.528 19.251 156.444 C19.27 146.657 19.284 136.87 19.292 127.083 C19.302 115.782 19.328 104.482 19.369 93.182 C19.399 84.448 19.414 75.714 19.417 66.98 C19.419 61.763 19.428 56.546 19.453 51.329 C19.481 45.511 19.477 39.693 19.47 33.875 C19.483 32.145 19.496 30.415 19.509 28.633 C19.502 27.048 19.495 25.464 19.488 23.832 C19.49 22.456 19.493 21.081 19.495 19.663 C18.763 14.243 16.444 11.209 12.312 7.75 C8.296 5.628 4.452 4.809 0 4 C0 2.68 0 1.36 0 0 Z " fill="#000000" transform="translate(3445,261)"/>
<path d="M0 0 C4.312 2.875 4.312 2.875 6.312 4.875 C6.312 5.865 6.312 6.855 6.312 7.875 C5.116 7.545 3.92 7.215 2.688 6.875 C-12.17 4.111 -25.408 6.191 -37.996 14.766 C-45.543 20.681 -51.865 27.766 -57.711 35.332 C-59.888 38.133 -62.159 40.843 -64.438 43.562 C-67.654 47.473 -70.373 51.347 -72.688 55.875 C-72.119 55.162 -71.551 54.449 -70.965 53.715 C-64.581 45.796 -58.309 38.454 -49.688 32.875 C-49.028 32.875 -48.367 32.875 -47.688 32.875 C-48.701 36.929 -49.784 38.661 -52.25 41.938 C-52.969 42.903 -53.689 43.869 -54.43 44.863 C-55.175 45.857 -55.92 46.851 -56.688 47.875 C-58.087 49.789 -59.483 51.706 -60.875 53.625 C-61.529 54.523 -62.182 55.422 -62.855 56.348 C-65.149 59.512 -67.423 62.69 -69.688 65.875 C-68.972 65.125 -68.257 64.375 -67.52 63.602 C-50.628 46.251 -50.628 46.251 -39.688 41.875 C-40.68 46.838 -41.699 48.736 -44.625 52.688 C-45.335 53.663 -46.046 54.639 -46.777 55.645 C-47.408 56.381 -48.038 57.117 -48.688 57.875 C-49.347 57.875 -50.008 57.875 -50.688 57.875 C-50.688 58.535 -50.688 59.195 -50.688 59.875 C-51.677 60.865 -52.668 61.855 -53.688 62.875 C-52.926 62.356 -52.164 61.836 -51.379 61.301 C-46.618 58.085 -41.924 55.004 -36.875 52.25 C-32.649 49.853 -29.264 47.147 -25.688 43.875 C-25.028 44.535 -24.367 45.195 -23.688 45.875 C-32.284 57.604 -41.738 67.339 -52.688 76.875 C-54.968 79.123 -57.214 81.402 -59.461 83.684 C-61.497 85.687 -63.65 87.57 -65.812 89.438 C-72.996 95.81 -77.978 102.605 -82.688 110.875 C-81.561 109.748 -80.571 108.49 -79.57 107.25 C-69.926 95.447 -59.604 87.663 -46.781 79.512 C-41.589 76.167 -36.61 72.602 -31.688 68.875 C-30.454 67.949 -30.454 67.949 -29.195 67.004 C-25.072 63.861 -21.25 60.641 -17.688 56.875 C-16.367 55.555 -15.048 54.235 -13.688 52.875 C-13.028 52.875 -12.367 52.875 -11.688 52.875 C-11.688 64.026 -25.1 75.124 -32.688 82.875 C-35.323 85.243 -37.984 87.584 -40.688 89.875 C-41.636 90.844 -42.585 91.814 -43.562 92.812 C-45.688 94.875 -45.688 94.875 -47.688 94.875 C-47.688 95.535 -47.688 96.195 -47.688 96.875 C-49.327 98.236 -49.327 98.236 -51 99.625 C-64.863 111.42 -75.347 128.553 -78.5 146.5 C-78.734 151.969 -78.75 157.401 -78.688 162.875 C-78.636 161.989 -78.584 161.104 -78.531 160.191 C-76.111 133.766 -57.884 116.285 -38.688 99.875 C-36.829 98.192 -34.975 96.504 -33.125 94.812 C-30.107 92.052 -27.081 89.369 -23.938 86.75 C-20.129 83.381 -16.972 79.761 -13.688 75.875 C-12.828 74.915 -11.968 73.954 -11.082 72.965 C2.962 57.022 12.492 38.603 11.312 16.875 C10.737 13.856 10.104 10.844 9.312 7.875 C13.312 8.875 13.312 8.875 15.312 9.875 C15.312 10.535 15.312 11.195 15.312 11.875 C16.633 12.535 17.952 13.195 19.312 13.875 C26.838 26.826 26.754 42.236 23.125 56.562 C22.186 61.549 22.512 64.147 24.312 68.875 C25.385 70.257 26.457 71.639 27.562 73.062 C28.47 74.321 29.378 75.579 30.312 76.875 C28.312 81.875 28.312 81.875 23.312 84.875 C23.062 88.417 23.062 88.417 23.312 91.875 C22.653 92.535 21.992 93.195 21.312 93.875 C20.983 95.03 20.653 96.185 20.312 97.375 C19.312 100.875 19.312 100.875 17.312 102.875 C17.127 104.762 17.127 104.762 16.938 106.688 C16.275 111.125 15.429 112.759 12.312 115.875 C4.599 119.732 -6.849 115.797 -14.688 113.875 C-25.52 130.442 -31.128 145.855 -29.688 165.875 C-28.278 172.505 -25.745 178.257 -20.688 182.875 C-14.744 186.349 -9.637 188.875 -2.688 188.875 C2.144 187.475 4.744 186.444 8.312 182.875 C9.487 177.761 9.487 177.761 8.312 172.875 C6.334 172.148 4.333 171.477 2.312 170.875 C2.642 169.555 2.972 168.235 3.312 166.875 C7.184 167.145 9.018 167.634 12.062 170.125 C14.876 173.564 16.178 176.706 16.688 181.125 C15.822 189.781 11.38 195.905 5.312 201.875 C0.312 205.187 0.312 205.187 -4.688 207.875 C-5.781 208.494 -6.874 209.113 -8 209.75 C-23.689 214.536 -38.894 207.497 -52.562 200.312 C-59.381 196.096 -65.008 190.483 -70.688 184.875 C-71.505 184.071 -72.322 183.266 -73.164 182.438 C-94.887 159.717 -103.427 128.431 -102.871 97.633 C-101.196 63.345 -88.766 32.684 -63.688 8.875 C-60.436 6.186 -57.309 4.096 -53.688 1.875 C-52.264 0.988 -50.841 0.101 -49.375 -0.812 C-32.545 -9.115 -16.442 -9.638 0 0 Z M20.312 37.875 C21.312 39.875 21.312 39.875 21.312 39.875 Z M19.312 39.875 C19.117 40.942 18.921 42.01 18.719 43.109 C14.223 65.509 5.211 83.99 -8.688 101.875 C-11.988 105.442 -11.988 105.442 -11.688 108.875 C-5.056 111.528 1.162 112.875 8.312 112.875 C12.128 109.06 12.242 106.086 13.312 100.875 C13.972 99.555 14.633 98.235 15.312 96.875 C14.983 96.215 14.653 95.555 14.312 94.875 C15.633 93.555 16.952 92.235 18.312 90.875 C18.646 86.708 18.646 86.708 18.312 82.875 C21.778 80.895 21.778 80.895 25.312 78.875 C23.407 74.807 23.407 74.807 20.688 71.188 C17.323 65.079 17.622 60.595 19.312 53.938 C20.49 49.152 20.449 44.784 20.312 39.875 C19.983 39.875 19.653 39.875 19.312 39.875 Z M-74.688 56.875 C-74.688 59.875 -74.688 59.875 -74.688 59.875 Z M-47.688 132.875 C-46.688 134.875 -46.688 134.875 -46.688 134.875 Z M-48.688 135.875 C-47.688 137.875 -47.688 137.875 -47.688 137.875 Z M-49.688 137.875 C-48.688 139.875 -48.688 139.875 -48.688 139.875 Z M-50.688 139.875 C-56.132 152.465 -57.113 167.553 -53 180.75 C-49.256 189.424 -49.256 189.424 -42.688 195.875 C-43.347 194.555 -44.008 193.235 -44.688 191.875 C-52.319 176.04 -53.611 161.14 -49.688 143.875 C-50.017 142.555 -50.347 141.235 -50.688 139.875 Z M-48.688 159.875 C-48.142 172.568 -45.655 182.609 -37.688 192.875 C-33.335 196.547 -28.987 199.73 -23.688 201.875 C-22.698 201.38 -22.698 201.38 -21.688 200.875 C-22.47 200.404 -23.252 199.934 -24.059 199.449 C-25.071 198.827 -26.082 198.204 -27.125 197.562 C-28.134 196.948 -29.144 196.333 -30.184 195.699 C-32.688 193.875 -32.688 193.875 -33.688 190.875 C-33.028 190.545 -32.367 190.215 -31.688 189.875 C-32.925 188.885 -34.162 187.895 -35.438 186.875 C-43.491 179.295 -45.714 170.585 -46.688 159.875 C-47.347 159.875 -48.008 159.875 -48.688 159.875 Z M-29.688 191.875 C-27.707 192.865 -27.707 192.865 -25.688 193.875 C-26.017 193.215 -26.347 192.555 -26.688 191.875 C-27.677 191.875 -28.668 191.875 -29.688 191.875 Z M-25.688 193.875 C-21.688 194.875 -21.688 194.875 -21.688 194.875 Z " fill="#000000" transform="translate(3299.6875,282.125)"/>
<path d="M0 0 C0.99 0.33 1.98 0.66 3 1 C3.681 3.197 3.681 3.197 4.375 5.438 C4.911 6.943 5.448 8.449 6 10 C8.475 10.99 8.475 10.99 11 12 C17.256 20.216 15.7 30.197 15 40 C12.305 56.295 4.169 71.192 -9.125 81.062 C-12.923 82.961 -15.787 83.737 -20 84 C-20.206 85.671 -20.412 87.341 -20.625 89.062 C-21.736 94.924 -23.466 97.935 -28 102 C-38.327 109 -38.327 109 -44 109 C-42 105 -42 105 -39.125 101.688 C-33.521 95.074 -30.675 89.881 -31 81 C-33.266 77.949 -35.606 74.952 -38 72 C-43.972 57.429 -41.042 42.815 -35.25 28.75 C-26.98 14.967 -16.817 7.791 -2 2 C-1.34 1.34 -0.68 0.68 0 0 Z M-21.312 23.375 C-30.162 35.311 -32.841 48.446 -32 63 C-30.763 67.606 -29.785 69.305 -26.25 72.438 C-22.395 74.291 -20.23 74.604 -16 74 C-5.631 68.71 -1.104 58.333 3 48 C4.753 42.202 5.324 36.926 5.375 30.875 C5.418 28.582 5.418 28.582 5.461 26.242 C4.957 21.607 3.973 19.531 1 16 C-7.678 10.215 -15.048 16.993 -21.312 23.375 Z " fill="#000000" transform="translate(3374,372)"/>
</svg>
